<?xml version="1.0" encoding="UTF-8" standalone="no"?>
<!-- Created with Inkscape (http://www.inkscape.org/) -->

<svg
   xmlns:dc="http://purl.org/dc/elements/1.1/"
   xmlns:cc="http://creativecommons.org/ns#"
   xmlns:rdf="http://www.w3.org/1999/02/22-rdf-syntax-ns#"
   xmlns:svg="http://www.w3.org/2000/svg"
   xmlns="http://www.w3.org/2000/svg"
   xmlns:xlink="http://www.w3.org/1999/xlink"
   xmlns:sodipodi="http://sodipodi.sourceforge.net/DTD/sodipodi-0.dtd"
   xmlns:inkscape="http://www.inkscape.org/namespaces/inkscape"
   width="256"
   height="256"
   id="svg2"
   version="1.1"
   inkscape:version="0.92.3 (2405546, 2018-03-11)"
   sodipodi:docname="gears.svg"
   inkscape:export-filename="gears.png"
   inkscape:export-xdpi="9"
   inkscape:export-ydpi="9">
  <defs
     id="defs4">
    <linearGradient
       id="linearGradient4899">
      <stop
         id="stop4901"
         offset="0"
         style="stop-color:#3ac17a;stop-opacity:1" />
      <stop
         id="stop4903"
         offset="1"
         style="stop-color:#1b7043;stop-opacity:1" />
    </linearGradient>
    <linearGradient
       id="linearGradient3991">
      <stop
         style="stop-color:#59ffa7;stop-opacity:1"
         offset="0"
         id="stop3993" />
      <stop
         style="stop-color:#00ab51;stop-opacity:1"
         offset="1"
         id="stop3995" />
    </linearGradient>
    <linearGradient
       inkscape:collect="always"
       xlink:href="#linearGradient3991"
       id="linearGradient4875"
       gradientUnits="userSpaceOnUse"
       gradientTransform="matrix(9.0785082,7.0519233,7.0529014,-9.0802355,-678.87533,807.33673)"
       x1="49.718521"
       y1="36.109161"
       x2="73.12014"
       y2="33.664532" />
    <linearGradient
       inkscape:collect="always"
       xlink:href="#linearGradient4899"
       id="linearGradient4897"
       x1="26.818773"
       y1="1022.5096"
       x2="4.2558627"
       y2="1045.8899"
       gradientUnits="userSpaceOnUse"
       gradientTransform="matrix(-7.274314,-3.0632925,-3.0642109,7.2751979,3397.9609,-6549.7688)" />
    <linearGradient
       inkscape:collect="always"
       xlink:href="#linearGradient3991"
       id="linearGradient4951"
       gradientUnits="userSpaceOnUse"
       gradientTransform="matrix(11.552418,4.5565862,4.5559716,-11.554566,-634.83939,1124.9385)"
       x1="40.710438"
       y1="41.383045"
       x2="61.083092"
       y2="33.896946" />
    <linearGradient
       inkscape:collect="always"
       xlink:href="#linearGradient4899"
       id="linearGradient4953"
       gradientUnits="userSpaceOnUse"
       gradientTransform="matrix(-8.4713155,-0.96865266,-0.96861489,8.472746,1358.7407,-7740.0074)"
       x1="35.661407"
       y1="1012.633"
       x2="20.610903"
       y2="1038.7749" />
  </defs>
  <sodipodi:namedview
     id="base"
     pagecolor="#ffffff"
     bordercolor="#666666"
     borderopacity="1.0"
     inkscape:pageopacity="0.0"
     inkscape:pageshadow="2"
     inkscape:zoom="2.0894426"
     inkscape:cx="89.777666"
     inkscape:cy="122.73276"
     inkscape:document-units="px"
     inkscape:current-layer="layer1"
     showgrid="false"
     inkscape:window-width="1920"
     inkscape:window-height="1130"
     inkscape:window-x="0"
     inkscape:window-y="0"
     inkscape:window-maximized="1"
     inkscape:snap-global="false">
    <inkscape:grid
       type="xygrid"
       id="grid3846"
       empspacing="5"
       visible="true"
       enabled="true"
       snapvisiblegridlinesonly="true" />
  </sodipodi:namedview>
  <metadata
     id="metadata7">
    <rdf:RDF>
      <cc:Work
         rdf:about="">
        <dc:format>image/svg+xml</dc:format>
        <dc:type
           rdf:resource="http://purl.org/dc/dcmitype/StillImage" />
        <dc:title />
      </cc:Work>
    </rdf:RDF>
  </metadata>
  <g
     inkscape:label="Layer 1"
     inkscape:groupmode="layer"
     id="layer1"
     transform="translate(0,-796.3622)">
    <path
       style="fill:none;fill-opacity:1;stroke:#4b6055;stroke-width:10;stroke-linejoin:round;stroke-miterlimit:4;stroke-dasharray:none;stroke-opacity:0.74117647"
       d="m 58.492225,947.34728 0.423522,-30.62129 c -1.982689,-1.10403 -3.55176,-2.39949 -5.401496,-3.8343 -1.844179,-1.4364 -3.906276,-2.99379 -5.453733,-4.63581 l -0.193789,-0.46533 -29.765374,7.73698 -9.3375325,-22.25385 27.8328485,-15.18013 0.137269,-0.32595 c -0.01365,-4.22938 0.450775,-8.04262 1.622764,-12.18223 l -22.598356,-23.1616 14.833345,-19.48475 27.321754,16.57459 c 3.830114,-2.31462 7.974227,-3.88699 12.233826,-4.98346 l 8.160642,-30.48124 24.030505,3.10247 -0.0396,31.56077 c 2.01014,1.09853 4.00478,2.17331 5.87377,3.63853 1.88341,1.46901 3.40541,3.15131 4.98328,4.8272 l 29.71379,-8.54001 9.00559,22.1165 -27.30997,15.78975 c 0.0581,4.75729 -0.21455,9.47957 -1.6577,14.11608 l 22.49433,21.5576 -15.16418,19.34476 -26.93907,-15.63208 c -3.953302,2.3074 -8.169431,3.84083 -12.564937,4.84394 l -8.543729,29.53987 -23.69988,-2.96201 z m 9.939791,-40.25838 c 16.188387,6.81709 34.728514,-1.01096 41.547424,-17.20076 6.8193,-16.19073 -0.67402,-34.59056 -16.862381,-41.40768 -16.188358,-6.81711 -34.919653,0.53926 -41.738972,16.73001 -6.818906,16.1898 0.865563,35.06135 17.053929,41.87843 z"
       id="path4146"
       inkscape:connector-curvature="0" />
    <path
       style="fill:url(#linearGradient4875);fill-opacity:1;stroke:url(#linearGradient4897);stroke-width:5;stroke-linejoin:round;stroke-miterlimit:4;stroke-dasharray:none;stroke-opacity:1"
       d="M 56.026731,943.03925 56.450264,912.418 c -1.982677,-1.1041 -3.551752,-2.39959 -5.401499,-3.83437 -1.844184,-1.43636 -3.906266,-2.99377 -5.453727,-4.63577 l -0.193797,-0.46533 -29.765366,7.73697 -9.3375319,-22.25386 27.8328379,-15.18014 0.137281,-0.32596 c -0.01366,-4.2294 0.450772,-8.04258 1.622758,-12.18221 l -22.598357,-23.16162 14.833346,-19.48469 27.321755,16.5745 c 3.830119,-2.31458 7.974233,-3.88693 12.233826,-4.9834 l 8.160648,-30.48127 24.030508,3.10246 -0.03963,31.56084 c 2.010144,1.09851 4.004774,2.17328 5.873744,3.63847 1.8834,1.46903 3.40546,3.1513 4.98333,4.82724 l 29.71375,-8.54002 9.00562,22.11646 -27.31003,15.78978 c 0.0582,4.75729 -0.21454,9.47957 -1.65765,14.11612 l 22.49433,21.55753 -15.1642,19.34479 -26.9391,-15.63211 c -3.953269,2.30743 -8.169386,3.8409 -12.564899,4.84402 l -8.543712,29.53981 -23.699886,-2.96198 z m 9.939797,-40.25839 c 16.18839,6.81709 34.728512,-1.01095 41.547432,-17.20077 6.81927,-16.19073 -0.67399,-34.59053 -16.862386,-41.4077 -16.188359,-6.81708 -34.91966,0.53928 -41.738972,16.73004 -6.818907,16.18978 0.865556,35.06131 17.053926,41.87843 z"
       id="path4847"
       inkscape:connector-curvature="0" />
    <path
       inkscape:connector-curvature="0"
       id="path4947"
       d="m 171.33189,1045.9479 -8.85504,-31.8767 c -2.39065,-0.5431 -4.41055,-1.4099 -6.76373,-2.3362 -2.34793,-0.9298 -4.95845,-1.9187 -7.06116,-3.1517 l -0.34213,-0.4235 -28.51053,17.0538 -16.43504,-20.2394 24.24787,-24.18442 0.0433,-0.37959 c -1.29785,-4.38089 -1.9738,-8.4754 -2.01517,-13.12297 l -30.45852,-17.15652 9.46425,-24.70288 33.35617,8.89377 c 3.26829,-3.56202 7.08739,-6.44975 11.17068,-8.8791 l -0.79121,-34.07932 25.85496,-4.07534 9.53823,32.73426 c 2.41743,0.52896 4.81155,1.03803 7.19392,1.99003 2.39849,0.95154 4.48702,2.23389 6.63154,3.49269 l 28.21326,-17.87083 16.04925,20.19763 -23.52077,24.65794 c 1.50415,4.91471 2.65497,9.89349 2.56595,15.1386 l 29.86385,15.52498 -9.84978,24.65817 -32.67338,-8.0327 c -3.39817,3.5919 -7.30374,6.4612 -11.55627,8.8349 l 0.10834,33.2195 -25.46959,4.1206 z m -1.91426,-44.7561 c 18.85222,2.1557 35.6975,-11.58641 37.85299,-30.44116 2.15561,-18.85583 -11.19767,-35.65895 -30.0499,-37.81461 -18.8522,-2.15566 -36.03881,11.15536 -38.19444,30.01122 -2.15548,18.85472 11.53917,36.08891 30.39135,38.24455 z"
       style="fill:none;fill-opacity:1;stroke:#4b6055;stroke-width:10.00000095;stroke-linejoin:round;stroke-miterlimit:4;stroke-dasharray:none;stroke-opacity:0.74117647" />
    <path
       inkscape:connector-curvature="0"
       id="path4949"
       d="m 168.24874,1042.6313 -8.85508,-31.8767 c -2.3906,-0.5431 -4.41054,-1.4101 -6.76371,-2.3363 -2.34789,-0.9296 -4.95844,-1.9186 -7.06113,-3.1515 l -0.34216,-0.4237 -28.51049,17.0541 -16.43507,-20.2395 24.24787,-24.18455 0.0433,-0.37959 c -1.29787,-4.38088 -1.97381,-8.47539 -2.01518,-13.12297 l -30.458516,-17.15649 9.464256,-24.70291 33.35616,8.89377 c 3.2683,-3.56201 7.08739,-6.44974 11.17069,-8.8791 l -0.79122,-34.07931 25.85496,-4.07534 9.53824,32.73424 c 2.41742,0.52897 4.81154,1.03805 7.19391,1.99004 2.3985,0.95155 4.48702,2.23389 6.63155,3.49269 l 28.21326,-17.87082 16.04925,20.19762 -23.52079,24.65794 c 1.50419,4.91472 2.65499,9.89349 2.56597,15.1386 l 29.86384,15.525 -9.84977,24.65818 -32.67339,-8.03278 c -3.39816,3.59198 -7.30376,6.46118 -11.55625,8.83508 l 0.10833,33.2194 -25.46957,4.1206 z m -1.91425,-44.75613 c 18.8522,2.15563 35.6975,-11.58642 37.85298,-30.44115 2.15562,-18.85585 -11.19767,-35.65896 -30.04989,-37.81462 -18.85219,-2.15567 -36.03881,11.15537 -38.19445,30.01122 -2.15549,18.85472 11.53916,36.08892 30.39136,38.24455 z"
       style="fill:url(#linearGradient4951);fill-opacity:1;stroke:url(#linearGradient4953);stroke-width:5.00000048;stroke-linejoin:round;stroke-miterlimit:4;stroke-dasharray:none;stroke-opacity:1" />
  </g>
</svg>
