<?xml version="1.0" encoding="UTF-8" standalone="no"?>
<!-- Created with Inkscape (http://www.inkscape.org/) -->

<svg
   xmlns:dc="http://purl.org/dc/elements/1.1/"
   xmlns:cc="http://creativecommons.org/ns#"
   xmlns:rdf="http://www.w3.org/1999/02/22-rdf-syntax-ns#"
   xmlns:svg="http://www.w3.org/2000/svg"
   xmlns="http://www.w3.org/2000/svg"
   xmlns:xlink="http://www.w3.org/1999/xlink"
   xmlns:sodipodi="http://sodipodi.sourceforge.net/DTD/sodipodi-0.dtd"
   xmlns:inkscape="http://www.inkscape.org/namespaces/inkscape"
   width="256"
   height="256"
   id="svg2"
   version="1.1"
   inkscape:version="0.91 r13725"
   sodipodi:docname="gear.svg"
   inkscape:export-filename="L:\projects\rezonator2\img\opts_gears_24.png"
   inkscape:export-xdpi="67.5"
   inkscape:export-ydpi="67.5">
  <defs
     id="defs4">
    <linearGradient
       id="linearGradient4899">
      <stop
         id="stop4901"
         offset="0"
         style="stop-color:#3ac17a;stop-opacity:1" />
      <stop
         id="stop4903"
         offset="1"
         style="stop-color:#1b7043;stop-opacity:1" />
    </linearGradient>
    <linearGradient
       id="linearGradient3991">
      <stop
         style="stop-color:#59ffa7;stop-opacity:1"
         offset="0"
         id="stop3993" />
      <stop
         style="stop-color:#00ab51;stop-opacity:1"
         offset="1"
         id="stop3995" />
    </linearGradient>
    <linearGradient
       inkscape:collect="always"
       xlink:href="#linearGradient3991"
       id="linearGradient4875"
       gradientUnits="userSpaceOnUse"
       gradientTransform="matrix(17.504824,6.1775492,6.177508,-17.505047,-1068.2437,1207.2985)"
       x1="49.662308"
       y1="35.753529"
       x2="61.8125"
       y2="35.859375" />
    <linearGradient
       inkscape:collect="always"
       xlink:href="#linearGradient4899"
       id="linearGradient4897"
       x1="25.900202"
       y1="1021.9106"
       x2="19.017616"
       y2="1036.8982"
       gradientUnits="userSpaceOnUse"
       gradientTransform="matrix(-12.707176,-0.98625175,-0.98625175,12.707176,1427.7836,-12141.365)" />
  </defs>
  <sodipodi:namedview
     id="base"
     pagecolor="#ffffff"
     bordercolor="#666666"
     borderopacity="1.0"
     inkscape:pageopacity="0.0"
     inkscape:pageshadow="2"
     inkscape:zoom="0.73872952"
     inkscape:cx="270.39489"
     inkscape:cy="192.9087"
     inkscape:document-units="px"
     inkscape:current-layer="layer1"
     showgrid="true"
     inkscape:window-width="1855"
     inkscape:window-height="1056"
     inkscape:window-x="65"
     inkscape:window-y="24"
     inkscape:window-maximized="1"
     inkscape:snap-global="false">
    <inkscape:grid
       type="xygrid"
       id="grid3846"
       empspacing="5"
       visible="true"
       enabled="true"
       snapvisiblegridlinesonly="true" />
  </sodipodi:namedview>
  <metadata
     id="metadata7">
    <rdf:RDF>
      <cc:Work
         rdf:about="">
        <dc:format>image/svg+xml</dc:format>
        <dc:type
           rdf:resource="http://purl.org/dc/dcmitype/StillImage" />
        <dc:title></dc:title>
      </cc:Work>
    </rdf:RDF>
  </metadata>
  <g
     inkscape:label="Layer 1"
     inkscape:groupmode="layer"
     id="layer1"
     transform="translate(0,-796.3622)">
    <path
       style="fill:none;fill-opacity:1;stroke:#4b6055;stroke-width:10;stroke-linejoin:round;stroke-miterlimit:4;stroke-dasharray:none;stroke-opacity:0.74117647"
       d="M 131.72564,1045.4993 116.76472,998.371 c -3.60066,-0.6811 -6.66515,-1.8662 -10.23072,-3.1218 -3.55785,-1.2608 -7.511269,-2.596 -10.719319,-4.3231 l -0.53414,-0.6141 -41.661959,27.0208 -25.651227,-29.3353 34.906683,-37.43903 0.04418,-0.56931 c -2.176935,-6.47254 -3.409288,-12.55117 -3.723782,-19.49035 l -46.431981,-23.96853 12.794679,-37.40961 50.311215,11.47015 c 4.688531,-5.49771 10.236532,-10.01832 16.204082,-13.86865 l -3.03486,-50.85638 38.400749,-7.49217 16.02806,48.37197 c 3.63994,0.65863 7.24396,1.28883 10.85452,2.58118 3.63462,1.29081 6.82418,3.09253 10.09612,4.85603 l 41.17353,-28.2247 25.07263,29.29389 -33.79483,38.10658 c 2.51417,7.25863 4.50395,14.63216 4.65614,22.47085 l 45.45495,21.56412 -13.37298,37.36387 -49.24447,-10.22136 c -4.88092,5.54947 -10.55909,10.04716 -16.78245,13.82375 l 1.96798,49.6093 -37.82255,7.5389 z m -5.29297,-66.74173 c 28.27878,2.19482 52.69518,-19.24544 54.88992,-47.5232 2.19487,-28.27944 -18.66596,-52.65 -46.94475,-54.84481 -28.27873,-2.19483 -53.228476,18.62019 -55.423353,46.89963 -2.194742,28.27776 19.199454,53.27357 47.478183,55.46838 z"
       id="path4146"
       inkscape:connector-curvature="0" />
    <path
       style="fill:url(#linearGradient4875);fill-opacity:1;stroke:url(#linearGradient4897);stroke-width:5;stroke-linejoin:round;stroke-miterlimit:4;stroke-dasharray:none;stroke-opacity:1"
       d="m 126.93968,1040.7133 -14.96092,-47.12823 c -3.60066,-0.68116 -6.66515,-1.86625 -10.23072,-3.12181 -3.557858,-1.26082 -7.511278,-2.59601 -10.719326,-4.32308 l -0.534134,-0.6141 -41.661964,27.02072 -25.651227,-29.33528 34.906683,-37.43902 0.04418,-0.56931 C 55.955317,938.73065 54.722964,932.65202 54.40847,925.71284 L 7.9764895,901.74431 20.771168,864.3347 71.082383,875.80485 c 4.688531,-5.49771 10.23653,-10.01832 16.204083,-13.86865 l -3.034859,-50.85638 38.400753,-7.49217 16.02806,48.37197 c 3.63994,0.65863 7.24396,1.28883 10.85452,2.58118 3.63462,1.29081 6.82418,3.09253 10.09612,4.85603 l 41.17353,-28.2247 25.07263,29.29389 -33.79483,38.10658 c 2.51417,7.25863 4.50395,14.63216 4.65614,22.47085 l 45.45495,21.56412 -13.37298,37.36387 -49.24447,-10.22136 c -4.88092,5.54947 -10.55909,10.04716 -16.78245,13.82378 l 1.96798,49.60924 -37.82255,7.5389 z m -5.29297,-66.7417 c 28.27878,2.19482 52.69518,-19.24544 54.88992,-47.5232 2.19487,-28.27944 -18.66596,-52.65 -46.94475,-54.84481 -28.27873,-2.19483 -53.228482,18.62019 -55.423359,46.89963 -2.194742,28.27776 19.199456,53.27357 47.478189,55.46838 z"
       id="path4847"
       inkscape:connector-curvature="0" />
  </g>
</svg>
